<svg xmlns="http://www.w3.org/2000/svg" viewBox="0 0 64 64">
  <defs>
    <linearGradient id="g" x1="0" y1="0" x2="1" y2="1">
      <stop offset="0" stop-color="#a855f7"/>
      <stop offset="1" stop-color="#f5c518"/>
    </linearGradient>
  </defs>
  <rect width="64" height="64" rx="14" fill="#0a0713"/>
  <path fill="url(#g)" d="M32 12c5 6 5 12 1 16 6-2 12 1 13 8-6 3-12 2-15-2 1 6-2 11-8 13 0-7 3-12 8-14-6 1-12-2-14-9 7-2 13 0 16 4-2-6-1-12 4-16 1 0 5-3-5 0z"/>
  <circle cx="32" cy="34" r="3" fill="#f5c518"/>
</svg>
